<svg xmlns="http://www.w3.org/2000/svg" data-name="Layer 1" viewBox="0 0 24 24"><path fill="#0092E4" d="M21.49,10.19l-1-.55h0l-9-5-.11,0a1.06,1.06,0,0,0-.19-.06l-.19,0-.18,0a1.17,1.17,0,0,0-.2.06l-.11,0-9,5a1,1,0,0,0,0,1.74L4,12.76V17.5a3,3,0,0,0,3,3h8a3,3,0,0,0,3-3V12.76l2-1.12V14.5a1,1,0,0,0,2,0V11.06A1,1,0,0,0,21.49,10.19ZM16,17.5a1,1,0,0,1-1,1H7a1,1,0,0,1-1-1V13.87l4.51,2.5.15.06.09,0a1,1,0,0,0,.25,0h0a1,1,0,0,0,.25,0l.09,0a.47.47,0,0,0,.15-.06L16,13.87Zm-5-3.14L4.06,10.5,11,6.64l6.94,3.86Z"/></svg>
 <svg class="chevron" width="16" height="9" viewBox="0 0 16 9" fill="none" xmlns="http://www.w3.org/2000/svg">
                  <title>Chevron button icon</title>
                  <path d="M.413 2.465 6.94 8.574c.141.135.31.242.495.315a1.595 1.595 0 0 0 1.17 0c.185-.073.353-.18.495-.315l6.45-6.11c.143-.133.256-.292.333-.468a1.376 1.376 0 0 0 0-1.108 1.438 1.438 0 0 0-.333-.469A1.566 1.566 0 0 0 14.477 0c-.401 0-.787.15-1.072.419l-5.385 5.1L2.634.42A1.596 1.596 0 0 0 .985.109a1.53 1.53 0 0 0-.496.31C.342.549.222.704.14.877a1.378 1.378 0 0 0 .274 1.588z" fill="#000000"/>
               </svg>